<?xml version="1.0" encoding="UTF-8" standalone="no"?>
<!-- Created with Inkscape (http://www.inkscape.org/) -->

<svg
   width="116.13811mm"
   height="31.374197mm"
   viewBox="0 0 116.13811 31.374197"
   version="1.1"
   id="svg1"
   xml:space="preserve"
   xmlns:inkscape="http://www.inkscape.org/namespaces/inkscape"
   xmlns:sodipodi="http://sodipodi.sourceforge.net/DTD/sodipodi-0.dtd"
   xmlns="http://www.w3.org/2000/svg"
   xmlns:svg="http://www.w3.org/2000/svg"><sodipodi:namedview
     id="namedview1"
     pagecolor="#ffffff"
     bordercolor="#666666"
     borderopacity="1.0"
     inkscape:showpageshadow="2"
     inkscape:pageopacity="0.0"
     inkscape:pagecheckerboard="0"
     inkscape:deskcolor="#d1d1d1"
     inkscape:document-units="mm" /><defs
     id="defs1" /><g
     inkscape:label="Layer 1"
     inkscape:groupmode="layer"
     id="layer1"
     transform="translate(-3.4412595,-7.394863)"><path
       style="fill:#000000;stroke-width:0.167733"
       d="m 17.965137,38.701328 c -0.371575,-0.26026 -0.667067,-1.673662 -0.899327,-4.301695 -0.02807,-0.317311 -0.06133,-0.586917 -0.07396,-0.599121 -0.01263,-0.01221 -0.01204,0.247414 0.0011,0.576931 0.02301,0.567314 0.01984,0.55082 -0.05996,-0.310655 -0.213968,-2.310087 -0.337273,-3.198443 -0.461169,-3.322525 -0.08089,-0.08101 -0.117546,-0.0094 -0.270223,0.52823 -0.220705,0.77713 -0.554978,1.361987 -0.755995,1.322702 -0.208258,-0.0407 -0.361037,-0.627308 -0.428695,-1.646049 -0.02876,-0.433251 -0.06827,-0.78773 -0.08776,-0.78773 -0.01952,0 -0.03543,0.0055 -0.03543,0.01221 0,0.160759 -0.24498,1.321494 -0.312052,1.478505 -0.315246,0.738012 -0.740833,0.582188 -1.059772,-0.388022 -0.128993,-0.392399 -0.299966,-0.642617 -0.779845,-1.141283 -0.493627,-0.512961 -0.922645,-0.859812 -1.751147,-1.41578 -0.770936,-0.517334 -1.0259173,-0.716999 -1.4808926,-1.159609 -0.761941,-0.741229 -1.149952,-1.467399 -1.360012,-2.54529 -0.139138,-0.713975 -0.179376,-1.264142 -0.224759,-3.073085 -0.0428,-1.706679 -0.08726,-2.161596 -0.240039,-2.457043 -0.09185,-0.177607 -0.234926,-0.272279 -0.411496,-0.272279 -0.218264,0 -0.47939,-0.116868 -0.94521,-0.423025 -0.991523,-0.651676 -1.870322,-1.561757 -2.34355,-2.426973 -0.752285,-1.375417 -0.722833,-2.997404 0.08185,-4.507404 0.887955,-1.666266 2.108232,-2.447937 4.54727,-2.912835 0.455351,-0.08679 1.1948193,-0.183504 2.0636346,-0.269888 0.998813,-0.09931 1.379378,-0.232328 2.430543,-0.849557 0.530042,-0.311231 0.776522,-0.415195 0.98435,-0.415195 0.216732,0 0.37428,0.124894 0.46839,0.37131 l 0.07364,0.192839 0.384731,0.02765 c 0.211603,0.01521 0.673132,0.09863 1.025632,0.185378 1.536619,0.378168 2.057564,0.36633 2.67848,-0.06087 0.70845,-0.487425 1.166001,-0.448624 2.677937,0.227103 0.942822,0.421375 1.766899,1.033645 2.770708,2.05858 1.257487,1.283947 2.020391,2.47643 2.14662,3.355341 0.01667,0.115942 0.04758,0.210801 0.06874,0.210801 0.05242,0 0.196054,-0.39767 0.283196,-0.784154 0.134477,-0.596404 0.421184,-1.146529 0.713892,-1.369787 0.149773,-0.114236 0.359747,-0.154051 0.466029,-0.08836 0.102057,0.06308 0.181693,0.334254 0.221399,0.753955 0.045,0.475756 0.137342,0.709627 0.316799,0.802429 0.269045,0.139128 0.535811,0.05962 0.806964,-0.240517 0.209377,-0.231754 0.261491,-0.338561 0.426055,-0.873157 0.333751,-1.084217 0.803604,-1.286588 1.339415,-0.576908 0.295874,0.391877 0.439507,0.371412 0.763118,-0.108732 0.223904,-0.332208 0.343892,-0.381548 0.344392,-0.141616 0.0011,0.417039 0.217049,0.637242 0.701246,0.714274 0.423447,0.06737 0.637588,0.222839 0.851255,0.618013 0.166478,0.307905 0.230189,0.295496 0.619926,-0.120755 0.219028,-0.233925 0.370285,-0.359849 0.432244,-0.359849 0.05242,0 0.180263,0.0649 0.284088,0.144232 0.172174,0.131549 0.319193,0.289477 1.060743,1.139451 l 0.244086,0.279774 0.61021,-0.735475 c 0.690097,-0.831763 0.885677,-0.986708 1.200469,-0.951048 0.205397,0.02327 0.582376,0.194545 1.374766,0.624617 0.906995,0.492273 1.130256,0.492335 1.599113,5.03e-4 0.280539,-0.294324 0.451731,-0.413236 0.594906,-0.413236 0.146463,0 0.443213,0.194743 0.879126,0.576929 0.744422,0.652673 1.116264,0.878783 1.512412,0.919668 0.385361,0.03977 0.594156,-0.177431 0.59473,-0.618683 8.07e-4,-0.615641 0.455955,-1.070079 0.929625,-0.928163 0.175334,0.05253 0.314802,0.189923 0.6355,0.62605 0.226822,0.308458 0.47055,0.457838 0.784014,0.480511 0.479327,0.03467 0.695295,-0.188794 0.761769,-0.78822 0.05406,-0.487483 0.119932,-0.725333 0.263634,-0.951927 0.21418,-0.337729 0.456859,-0.315384 0.56631,0.05214 0.02714,0.09114 0.06187,0.385385 0.07718,0.653881 0.04193,0.735394 0.151286,1.042912 0.370865,1.042912 0.18044,0 0.618386,-0.722223 0.897839,-1.480636 0.341918,-0.927943 0.762692,-1.494596 1.011107,-1.361648 0.209704,0.11223 0.403171,-0.0094 0.403171,-0.253494 0,-0.257849 0.218539,-0.349908 0.493322,-0.207812 0.209555,0.108363 0.35539,0.06955 0.41573,-0.110639 0.07355,-0.219648 0.408025,-0.491637 0.949145,-0.771831 0.550518,-0.285061 0.893351,-0.405753 1.044682,-0.367772 0.152504,0.03828 0.194106,0.205097 0.244713,0.981303 0.06538,1.002802 0.275717,1.557302 0.696422,1.835966 0.26381,0.174741 0.372725,0.174538 0.572728,-10e-4 0.306798,-0.269374 0.775153,-1.442421 0.775848,-1.943203 1.21e-4,-0.08689 -0.03451,-0.254856 -0.07695,-0.373271 -0.07711,-0.215127 -0.07709,-0.215365 0.02689,-0.29956 0.267761,-0.216819 0.669978,0.05689 0.671836,0.45718 0.0015,0.335908 0.132087,0.33152 0.389369,-0.0131 0.332622,-0.445521 0.352216,-0.464924 0.411762,-0.407744 0.03331,0.03199 0.06958,0.240206 0.08888,0.51036 0.0622,0.870431 0.417816,1.509604 1.044096,1.876628 0.351532,0.206012 0.469556,0.151694 0.802853,-0.369497 0.388826,-0.608021 0.605159,-0.795483 0.854743,-0.740664 0.228957,0.05029 0.407205,0.330369 0.579319,0.910288 0.191538,0.645367 0.433009,0.966611 0.801078,1.065722 0.234418,0.06312 0.4374,-0.0015 0.672631,-0.213963 0.235612,-0.212861 0.361752,-0.477842 0.525218,-1.103321 0.460325,-1.761363 1.359197,-2.899365 2.290119,-2.899365 0.393016,0 0.851112,0.276305 1.21382,0.732126 0.253408,0.318464 0.459208,0.466114 0.649682,0.466114 0.09954,0 0.201576,-0.07099 0.449838,-0.312932 0.224782,-0.219065 0.418161,-0.359026 0.644684,-0.466602 0.56892,-0.270178 1.06864,-0.297077 1.103866,-0.05942 0.03167,0.213666 0.391867,0.353886 1.123975,0.437549 0.219678,0.0251 0.579149,0.04602 0.798826,0.04648 0.842258,0.0018 2.213652,0.208364 3.112823,0.468933 0.204004,0.05912 0.715416,0.235391 1.136473,0.39172 1.320573,0.490293 1.458313,0.49158 1.903536,0.01779 0.287857,-0.306325 0.296035,-0.311322 0.348649,-0.213014 0.02962,0.05537 0.07023,0.363647 0.09022,0.685065 0.05487,0.882174 0.275557,1.642838 0.564167,1.94455 0.150574,0.157414 0.215237,0.153841 0.319531,-0.01765 0.07678,-0.126256 0.122202,-0.272655 0.269927,-0.869935 0.03812,-0.154042 0.06545,-0.188612 0.149224,-0.188612 0.283347,0 0.801781,0.562243 2.219956,2.407573 0.408001,0.530887 0.767818,0.965249 0.799598,0.965249 0.111746,0 0.302767,-0.195325 1.01397,-1.036812 1.330592,-1.574335 1.975282,-2.108985 2.637651,-2.187434 0.406189,-0.0481 0.561779,0.187409 0.827647,1.25281 0.171091,0.685598 0.256131,0.928037 0.419098,1.194799 0.159419,0.260947 0.270314,0.368794 0.435163,0.423199 0.22927,0.07567 0.415996,-0.03809 0.668068,-0.407014 0.324009,-0.473873 0.776737,-0.723018 1.435766,-0.790012 0.416856,-0.04237 0.577565,-0.124615 0.784087,-0.40124 0.08978,-0.120257 0.214603,-0.238291 0.277385,-0.262298 0.06278,-0.02401 0.48161,-0.06636 0.930725,-0.09412 1.14306,-0.07065 1.656042,-0.171794 2.023698,-0.399014 0.35209,-0.217606 0.865487,-0.303988 1.872403,-0.315042 0.563161,-0.0062 0.596049,-0.0013 0.865395,0.125338 0.153994,0.07247 0.531177,0.282615 0.838191,0.466988 0.97913,0.588009 1.498285,0.812871 2.1716,0.940597 0.460092,0.08728 0.693882,0.08712 1.032852,-6.45e-4 0.37735,-0.09778 0.60186,-0.22035 1.53966,-0.840551 1.21948,-0.806487 1.70659,-1.022297 2.41966,-1.072023 0.47323,-0.033 0.91933,0.05003 2.15789,0.401672 1.08843,0.309011 1.66613,0.425788 2.12144,0.428827 0.31463,0.0021 0.57905,0.07623 0.7169,0.200984 0.14434,0.130619 0.37082,0.50057 0.66367,1.084068 0.40878,0.814514 0.57464,1.068092 1.00378,1.534707 0.75242,0.818127 0.98646,0.862634 1.61009,0.306176 0.68201,-0.60855 1.24807,-0.840699 2.17754,-0.893041 1.37652,-0.07752 2.93106,0.605175 3.80552,1.671233 0.12983,0.158271 0.32792,0.473955 0.44021,0.701521 0.19091,0.386897 0.20241,0.430113 0.17714,0.665688 -0.0978,0.911826 -1.64812,4.540134 -3.82434,8.950262 -1.62615,3.29539 -2.54561,4.833477 -3.45841,5.785237 -0.74256,0.774248 -1.35677,1.048623 -2.49717,1.11552 -0.66867,0.03923 -0.81724,0.09622 -0.97257,0.373145 -0.1299,0.231588 -0.22691,0.732649 -0.28437,1.468805 -0.12304,1.576588 -0.33879,2.257451 -0.67449,2.12863 -0.24381,-0.09356 -0.49094,-1.024832 -0.63553,-2.394905 -0.0594,-0.56333 -0.16041,-1.111901 -0.2148,-1.167182 -0.0809,-0.08227 -0.12476,-0.01367 -0.26671,0.417635 -0.14681,0.44609 -0.33934,0.759449 -0.48984,0.797223 -0.29307,0.07355 -0.6222,-0.384802 -0.82351,-1.146809 -0.0563,-0.213165 -0.11881,-0.387571 -0.1389,-0.387571 -0.11102,0 -0.29251,0.650349 -0.41489,1.486704 -0.31113,2.126372 -0.57117,2.911142 -0.90535,2.732294 -0.30978,-0.165789 -0.60683,-1.695441 -0.73744,-3.797396 -0.0879,-1.413967 -0.28016,-3.233059 -0.37863,-3.58171 -0.0557,-0.197099 -0.17121,-0.285283 -0.694,-0.529622 -1.60895,-0.751992 -2.413858,-1.021889 -3.055005,-1.024383 -0.291299,-0.0012 -0.418765,0.02301 -0.710064,0.134466 -0.45005,0.172203 -0.60692,0.212118 -1.153861,0.293597 -0.658164,0.09805 -1.776765,0.158343 -2.941842,0.158575 -1.966529,3.35e-4 -3.367306,-0.13844 -4.278111,-0.424006 -0.750344,-0.235259 -1.146216,-0.198354 -1.456187,0.135748 -0.3303,0.356015 -0.864326,0.466762 -2.396477,0.496989 -1.729313,0.03412 -3.188683,-0.09196 -4.788981,-0.413731 -1.026529,-0.206403 -1.715275,-0.437512 -2.368751,-0.794837 -1.132048,-0.619012 -1.297176,-0.61612 -2.679391,0.0469 -0.669941,0.321358 -1.069946,0.462643 -1.701479,0.60097 -1.17586,0.257553 -2.363891,0.385552 -4.080241,0.439607 -3.073227,0.09679 -5.857745,-0.244058 -6.814861,-0.834189 -0.09763,-0.0602 -0.442376,-0.317613 -0.766091,-0.572032 l -0.588573,-0.462581 -0.340782,0.369226 c -0.745667,0.807908 -1.030342,1.031332 -1.566424,1.229389 -0.506302,0.187055 -1.04043,0.22372 -1.667097,0.114439 -0.521435,-0.09093 -0.932494,-0.235057 -1.705726,-0.598062 -0.72924,-0.342354 -0.90182,-0.398132 -1.232923,-0.398481 -0.296662,-3.35e-4 -0.646624,0.117591 -1.255682,0.423045 -0.660573,0.33129 -1.334869,0.580736 -1.775548,0.656839 -0.317243,0.05479 -0.387088,0.08346 -0.49355,0.202611 -0.07313,0.08184 -0.124011,0.189729 -0.124011,0.262927 0,0.288269 -0.48988,0.514659 -0.883502,0.408298 -0.223622,-0.06042 -0.447875,-0.260448 -0.447875,-0.399485 0,-0.131286 -0.11723,-0.344607 -0.219438,-0.399307 -0.04696,-0.02513 -0.137745,-0.0457 -0.201743,-0.0457 -0.0945,0 -0.132277,0.03598 -0.201077,0.191514 -0.158961,0.359358 -0.221468,0.894014 -0.266515,2.279648 -0.06564,2.01907 -0.179269,2.419429 -0.68669,2.419429 -0.484107,0 -0.615898,-0.441736 -0.664671,-2.227837 -0.03144,-1.150241 -0.112777,-2.083706 -0.223003,-2.558986 -0.07777,-0.335333 -0.124851,-0.436756 -0.279945,-0.603042 -0.286764,-0.307458 -0.767701,-0.006 -1.185752,0.743351 -0.352176,0.631235 -0.590472,1.398832 -0.778416,2.507427 -0.278894,1.645064 -0.566268,2.501892 -0.962181,2.868812 -0.333584,0.309155 -0.6579,-0.09702 -0.855519,-1.071452 -0.127578,-0.629071 -0.176347,-1.476733 -0.176347,-3.065127 v -1.471924 l -1.897214,-0.02553 c -2.527592,-0.0338 -3.661778,-0.155493 -4.407732,-0.472926 -0.706405,-0.300601 -1.225541,-0.292736 -2.532225,0.03836 -1.08759,0.275584 -1.689688,0.343964 -2.394897,0.271988 -1.259907,-0.12859 -2.246381,-0.479677 -3.279943,-1.167331 -0.585597,-0.389614 -1.047196,-0.815262 -1.963926,-1.810964 -0.569678,-0.618759 -0.906005,-0.9523 -0.924806,-0.917147 -0.01624,0.03038 -0.08304,0.354805 -0.148424,0.720933 -0.332854,1.863783 -0.479901,2.353014 -0.825594,2.746737 -0.30917,0.352122 -0.718972,0.491155 -1.640675,0.556631 -1.556282,0.110554 -2.502696,-0.187476 -3.727451,-1.173793 -0.919559,-0.74053 -1.438466,-1.086086 -1.515404,-1.009149 -0.02237,0.02238 -0.05936,0.218792 -0.08217,0.436476 -0.103078,0.983575 -0.144133,2.468695 -0.179623,6.497929 -0.03688,4.185935 -0.05965,4.808707 -0.181258,4.955232 -0.0677,0.08157 -0.396022,0.07521 -0.51773,-0.01003 z m 91.649423,-8.975713 c 0.60551,-0.277889 1.00754,-0.629561 1.41477,-1.237579 0.56201,-0.839099 1.75868,-3.167386 2.56137,-4.983505 0.99441,-2.249893 2.02038,-4.361342 2.51576,-5.177428 0.40544,-0.667913 0.50465,-0.875356 0.50465,-1.055239 0,-0.227756 -0.17171,-0.3047 -0.68788,-0.308246 -0.46667,-0.0032 -0.66551,0.07693 -0.97112,0.391386 -0.50607,0.520697 -0.84989,1.170448 -2.33826,4.418737 -0.39703,0.866505 -0.73474,1.590685 -0.75045,1.609288 -0.0157,0.0186 -0.14412,-0.221043 -0.28534,-0.532551 -1.75639,-3.874489 -2.42759,-5.199859 -2.91149,-5.74914 -0.32444,-0.368266 -0.5786,-0.435716 -0.80158,-0.212726 -0.1213,0.121294 -0.12973,0.152296 -0.12968,0.477076 1.4e-4,0.816826 0.65606,2.744452 2.02094,5.939136 0.6213,1.454241 0.76424,1.873813 0.84095,2.468516 0.0348,0.2698 -0.0341,0.681195 -0.15961,0.952536 -0.12888,0.278685 -0.66878,0.821089 -1.10328,1.108375 -0.95078,0.628653 -1.39407,1.415235 -1.03683,1.839783 0.16457,0.195586 0.25193,0.222915 0.65821,0.205893 0.2835,-0.01188 0.41625,-0.04296 0.65887,-0.154312 z M 34.598295,25.826026 c 1.04513,-0.207194 1.845761,-0.771413 2.338847,-1.648226 0.769899,-1.36905 0.914101,-3.072033 0.382065,-4.512073 -0.345693,-0.935671 -1.055721,-2.0585 -1.389003,-2.196549 -0.168642,-0.06986 -0.26681,-0.0026 -0.26681,0.182729 0,0.176631 -0.09412,0.16288 -0.265028,-0.03872 -0.340107,-0.401185 -0.456245,-0.493136 -0.769495,-0.609247 -0.981453,-0.36379 -2.576031,-0.306885 -3.551972,0.126759 -0.896177,0.3982 -1.621321,1.197322 -1.975245,2.176748 -0.255717,0.707637 -0.295121,1.004449 -0.292105,2.200018 0.0032,1.21976 0.04129,1.441065 0.334778,1.938406 0.169994,0.288084 0.946307,1.092163 1.348888,1.397138 1.204207,0.91225 2.679738,1.265585 4.10508,0.983017 z m -2.244661,-1.808723 c -0.69417,-0.179474 -1.14464,-0.470899 -1.502005,-0.9717 -1.082117,-1.516451 -0.510364,-3.644216 1.205271,-4.485372 0.381661,-0.187124 0.528305,-0.233781 0.990345,-0.315092 0.765286,-0.134678 1.353001,-0.0668 1.719345,0.198585 0.3882,0.281209 1.03728,1.419963 1.2137,2.129326 0.129741,0.521673 0.101977,1.177479 -0.06866,1.621821 -0.169933,0.442507 -0.47583,0.943188 -0.723262,1.183807 -0.667312,0.648937 -1.804205,0.905063 -2.834735,0.638625 z m 20.218246,1.881914 c 0.393241,-0.06203 0.935344,-0.242758 1.309037,-0.436415 0.826027,-0.42807 1.930648,-1.490382 1.930648,-1.856699 0,-0.222629 -0.163321,-0.443132 -0.421933,-0.56966 -0.214842,-0.105111 -0.284786,-0.117832 -0.545377,-0.09919 -0.407824,0.02918 -0.644779,0.145995 -0.990023,0.488065 -0.532931,0.528032 -1.291601,0.7862 -2.414022,0.821468 -0.602185,0.01892 -0.689651,0.01188 -0.916874,-0.0739 -0.147645,-0.05573 -0.281248,-0.140694 -0.32411,-0.20611 -0.06861,-0.10472 -0.06756,-0.119964 0.0178,-0.258087 0.227643,-0.368335 1.26059,-1.246826 2.38439,-2.027852 1.975641,-1.373047 3.210147,-2.436278 3.210147,-2.764775 0,-0.197021 -0.263989,-0.636606 -0.530467,-0.883319 -0.808241,-0.748288 -2.142531,-1.349421 -3.324043,-1.497571 -1.756128,-0.220199 -3.800028,1.062537 -4.688821,2.942669 -0.317638,0.671927 -0.399525,1.049567 -0.391981,1.807724 0.01176,1.182133 0.268512,1.768527 1.238282,2.828142 1.251849,1.367825 2.905586,2.030273 4.457345,1.785506 z m -3.817099,-4.269709 c -0.07426,-0.121794 -0.08797,-0.224124 -0.08811,-0.657782 -1.14e-4,-0.353417 0.02184,-0.578137 0.07041,-0.720681 0.418065,-1.226955 1.897734,-2.247963 3.259637,-2.249228 0.718224,-6.45e-4 1.507122,0.344857 1.507122,0.660095 0,0.145364 -0.260397,0.486657 -0.562488,0.737233 -0.638769,0.529844 -2.684265,1.854485 -3.392697,2.197073 -0.473931,0.229188 -0.66944,0.237385 -0.793878,0.03329 z m -36.767869,4.156534 c 0.2334,-0.25184 0.386227,-1.044062 0.465809,-2.414649 0.02479,-0.427151 0.07535,-1.584164 0.112321,-2.571145 0.03699,-0.986979 0.07582,-1.803097 0.08631,-1.813596 0.01048,-0.0105 0.414523,0.0031 0.897832,0.03015 2.338777,0.131042 3.04156,0.159253 3.985292,0.159973 0.953575,6.45e-4 1.034379,-0.0055 1.228374,-0.09518 0.277206,-0.128109 0.347106,-0.27148 0.34702,-0.711753 -1.13e-4,-0.549391 -0.1483,-0.746817 -0.647615,-0.862791 -0.144106,-0.03347 -1.200518,-0.05971 -3.124552,-0.07762 l -2.906841,-0.02704 -0.01156,-1.983184 -0.01156,-1.983182 0.18907,-0.02306 c 0.103987,-0.01268 0.698316,-0.03459 1.320737,-0.04868 2.342201,-0.05303 5.021686,-0.157563 5.645059,-0.220219 1.243579,-0.124998 1.641595,-0.314821 1.708673,-0.814904 0.04898,-0.365344 -0.154526,-0.502014 -0.918747,-0.616931 -0.394081,-0.05926 -1.167824,-0.07307 -5.014853,-0.08948 -5.5712626,-0.02378 -6.6080126,0.02022 -7.4601546,0.316566 -0.693359,0.241126 -1.300661,0.92541 -1.578567,1.77867 -0.09345,0.28692 -0.116595,0.446358 -0.119342,0.821952 -0.0038,0.517836 0.0662,0.795889 0.293121,1.164713 0.223119,0.362639 0.784028,0.787972 1.039143,0.787972 0.250238,0 0.328031,-0.338015 0.210318,-0.913851 -0.116611,-0.570449 -0.107729,-1.087725 0.02376,-1.384445 0.199102,-0.449263 0.606033,-0.697697 1.223298,-0.746831 0.295788,-0.02354 1.7739386,0.12226 1.8324296,0.180752 0.01398,0.01396 5.37e-4,0.878835 -0.02946,1.921953 -0.03016,1.043117 -0.07314,2.555608 -0.09552,3.36109 -0.115476,4.154447 0.01183,6.015697 0.455723,6.663537 0.218544,0.31895 0.654685,0.426766 0.854444,0.211225 z m 10.720205,0.06927 c 0.299718,-0.160404 0.438378,-1.186516 0.440604,-3.260557 0.0032,-2.889356 0.315219,-3.901492 1.294919,-4.199067 0.462524,-0.140486 1.083251,-0.10594 1.57477,0.08764 0.207678,0.08179 0.44375,0.214543 0.554742,0.311944 0.260841,0.228907 0.442083,0.315711 0.659191,0.315711 0.471927,0 0.784689,-0.415943 0.745785,-0.991827 -0.04387,-0.649665 -0.460427,-1.061194 -1.256149,-1.241041 -0.522988,-0.118206 -1.380083,-0.162077 -3.406103,-0.174345 l -1.941593,-0.01176 v 3.476286 c 0,2.062566 0.01903,3.695962 0.04672,4.01647 0.087,1.005676 0.256486,1.452068 0.622109,1.638506 0.16808,0.08571 0.531956,0.103236 0.664992,0.03204 z m 22.209347,-0.04032 c 0.903333,-0.123249 1.189165,-0.369002 0.968942,-0.833086 -0.152118,-0.320567 -0.732272,-0.621526 -1.437265,-0.745593 -0.563089,-0.0991 -1.126165,-0.08393 -1.795018,0.04834 -0.656398,0.12981 -1.125311,0.132837 -1.250077,0.0081 -0.0695,-0.0695 -0.06879,-0.08663 0.01095,-0.26442 0.225736,-0.50331 1.048343,-1.62586 2.65926,-3.628895 1.480211,-1.840514 1.944853,-2.635254 1.838213,-3.144158 -0.03484,-0.166278 -0.180598,-0.34047 -0.365261,-0.436529 -0.486207,-0.252914 -2.316962,-0.368086 -4.579823,-0.288116 -1.540578,0.05445 -1.802355,0.09934 -2.019184,0.346296 -0.124567,0.141875 -0.132874,0.174163 -0.132718,0.51593 2.51e-4,0.536464 0.100838,0.674716 0.596907,0.820368 0.17394,0.05107 0.632864,0.07194 2.055342,0.09345 l 1.831399,0.0277 -1.337428,1.7086 c -1.681826,2.148578 -2.109748,2.720519 -2.739346,3.661286 -0.787368,1.176511 -0.978053,1.62409 -0.771544,1.810978 0.196592,0.177914 0.646956,0.280927 1.496175,0.342223 0.68413,0.04938 4.538708,0.01647 4.970474,-0.04244 z m 14.107482,-0.04914 c 0.203359,-0.241679 0.277026,-0.655717 0.335221,-1.884099 0.02312,-0.488172 0.04305,-1.376866 0.04429,-1.974876 0.0042,-2.031586 0.144402,-2.66769 0.689305,-3.126917 0.335811,-0.283012 0.902711,-0.651042 1.177453,-0.764399 0.44255,-0.182595 0.699181,-0.127236 1.178579,0.254233 0.443785,0.35313 0.803026,0.774221 0.999696,1.171809 0.280363,0.566785 0.345245,0.97856 0.395444,2.509653 0.06503,1.983561 0.187342,2.722097 0.555517,3.354344 0.206083,0.353895 0.610142,0.625125 0.875218,0.587501 0.241345,-0.03425 0.363097,-0.928933 0.358263,-2.632658 -0.0053,-1.861577 -0.156103,-3.579097 -0.383124,-4.362894 -0.286752,-0.990031 -1.143805,-1.776005 -2.302211,-2.111283 -0.777489,-0.22503 -1.492885,-0.194226 -2.408676,0.103715 -1.084503,0.352826 -1.43205,0.344962 -1.896242,-0.0429 -0.489703,-0.409187 -0.703041,-0.350185 -0.853208,0.235964 -0.146273,0.570955 -0.180571,1.332724 -0.179217,3.980634 0.0017,3.192399 0.06013,3.946704 0.346148,4.463077 0.126408,0.228217 0.408566,0.374259 0.723085,0.374259 0.202659,0 0.244577,-0.01646 0.344463,-0.135156 z m 12.653194,0.02404 c 2.050978,-0.12073 2.942602,-0.270237 3.661286,-0.613921 0.992352,-0.474554 1.765901,-2.029128 1.851021,-3.719935 0.05167,-1.026595 -0.128632,-1.457659 -1.021656,-2.442397 -0.568556,-0.626944 -0.873744,-1.118162 -0.873744,-1.406338 0,-0.04412 0.07919,-0.202727 0.175965,-0.352465 0.3103,-0.480096 0.445415,-1.097695 0.443461,-2.027039 -0.0023,-1.068776 -0.18384,-1.64418 -0.650014,-2.059675 -0.611361,-0.544896 -1.581999,-0.868654 -3.098149,-1.033389 -0.739834,-0.08038 -4.555707,-0.08055 -5.081421,-1.67e-4 -0.785034,0.119953 -1.004817,0.258128 -0.965496,0.606992 0.02998,0.266025 0.209564,0.529808 0.468429,0.688081 0.359362,0.219714 0.444556,0.306804 0.533689,0.545562 0.219205,0.587179 0.270952,1.470109 0.3192,5.446215 0.02266,1.867406 0.06216,3.774724 0.08777,4.238488 0.06023,1.090339 0.160078,1.881833 0.249928,1.981114 0.187064,0.206705 1.843566,0.269965 3.899726,0.148928 z m -0.62131,-1.693273 c -0.979667,-0.07887 -1.561519,-0.313458 -1.663343,-0.670605 -0.138851,-0.487009 -0.137647,-2.283177 0.0021,-3.097335 0.147229,-0.857903 0.37221,-0.949564 2.61542,-1.065565 0.594467,-0.03074 1.273379,0.02669 1.684515,0.142506 1.705092,0.480302 2.329183,2.570602 1.116356,3.739072 -0.562691,0.542111 -1.411552,0.828529 -2.774031,0.935999 -0.314755,0.02483 -0.624299,0.04179 -0.687878,0.03768 -0.06358,-0.0041 -0.195482,-0.01389 -0.293116,-0.02175 z m -1.823184,-6.668291 c -0.0102,-0.0102 -0.01855,-0.836968 -0.01855,-1.837254 V 13.77237 l 0.410508,0.0287 c 0.22578,0.01579 0.969686,0.05915 1.653127,0.09635 0.683439,0.03721 1.532193,0.08684 1.886117,0.110296 0.353924,0.02346 0.668463,0.04296 0.698973,0.04335 0.04332,5.03e-4 0.05547,0.343942 0.05547,1.567202 v 1.566518 l -1.453421,0.08064 c -0.799381,0.04435 -1.849475,0.103325 -2.333545,0.131051 -0.484069,0.02773 -0.888476,0.04206 -0.898679,0.03186 z m 16.734606,8.30059 0.710069,-0.02762 -0.01032,-3.505959 c -0.0056,-1.928278 -0.02968,-3.729209 -0.05333,-4.002071 -0.07766,-0.895828 -0.219539,-1.168341 -0.641196,-1.231573 -0.404974,-0.06073 -0.734392,0.06267 -0.868369,0.325294 -0.156424,0.306615 -0.186887,0.69189 -0.223151,2.822525 -0.04242,2.49287 -0.07821,2.746816 -0.461766,3.278479 -0.13794,0.191196 -0.74914,0.627627 -1.175625,0.839463 -0.61591,0.30592 -1.042562,0.281767 -1.853903,-0.104956 -0.767167,-0.365667 -0.941914,-0.794903 -0.947199,-2.326574 -0.0032,-0.934185 -0.07706,-2.599274 -0.132832,-2.995597 -0.120879,-0.858922 -0.347542,-1.375783 -0.767495,-1.750116 -0.323923,-0.288738 -0.721902,-0.513225 -0.909864,-0.513225 -0.34743,0 -0.433195,0.316801 -0.282686,1.044205 0.135101,0.652924 0.224394,1.824944 0.253491,3.327148 0.05151,2.658344 0.246911,3.558108 0.903311,4.159057 0.408549,0.37404 1.021572,0.603072 1.867591,0.697754 0.371011,0.04152 3.160112,0.01952 4.593255,-0.03623 z m 9.441678,0.0094 1.098387,-0.02874 V 19.321167 12.93275 l -1.342469,0.02165 c -0.73836,0.01191 -1.387405,0.03634 -1.442326,0.0543 -0.171037,0.05593 -0.119783,0.188174 0.136477,0.352101 0.430372,0.275308 0.621276,0.563224 0.769898,1.161168 0.115971,0.466579 0.11502,2.171064 -0.0011,2.472799 -0.139434,0.36144 -0.156682,0.360687 -1.314667,-0.05746 -0.691853,-0.249828 -1.051186,-0.322975 -1.576292,-0.320879 -0.55472,0.0022 -1.035648,0.13353 -1.730791,0.472583 -0.825787,0.402775 -1.479285,1.062866 -1.883823,1.902832 -0.327897,0.680831 -0.44804,1.17435 -0.478981,1.967516 -0.04742,1.216062 0.277878,2.299222 1.030593,3.431473 0.363414,0.546646 0.902913,0.955393 1.517286,1.149546 0.843771,0.266647 1.557324,0.293714 5.218095,0.197939 z m -3.489637,-1.260597 c -0.461384,-0.113278 -1.311199,-0.772152 -1.752599,-1.358811 -0.430222,-0.571804 -0.734693,-1.254953 -0.787044,-1.765886 -0.15352,-1.498476 1.347179,-3.015067 2.978209,-3.009749 1.135113,0.0037 1.927722,0.628983 2.266995,1.788413 0.120041,0.410226 0.121568,1.793008 0.0027,2.218554 -0.265072,0.946937 -0.611786,1.399381 -1.407561,1.836795 -0.509359,0.279979 -0.946269,0.37764 -1.300441,0.290684 z m 12.265627,1.29118 c 0.64683,-0.02365 1.40072,-0.0555 1.67532,-0.07078 l 0.49926,-0.02779 v -6.364012 -6.364041 h -0.88152 c -0.9606,0 -1.25475,0.03609 -1.55933,0.191343 -0.17269,0.08801 -0.2015,0.122815 -0.21297,0.257148 -0.0181,0.211936 0.11381,0.370384 0.35986,0.432341 0.22335,0.05624 0.2903,0.168649 0.41374,0.694629 0.0936,0.398855 0.1069,1.696769 0.0213,2.085825 -0.0883,0.401407 -0.22253,0.683939 -0.35539,0.747805 -0.222,0.106715 -0.36306,0.02465 -0.72097,-0.419447 -0.11553,-0.143346 -0.21647,-0.21689 -0.3544,-0.258214 -0.71775,-0.215042 -2.12593,0.02159 -3.189735,0.536018 -0.413256,0.199839 -0.511162,0.271265 -0.865387,0.631323 -0.592124,0.601873 -0.958173,1.266953 -1.199679,2.179716 -0.289976,1.095934 -0.253438,2.105548 0.114024,3.150924 0.699504,1.989971 1.745609,2.60805 4.458467,2.634242 0.34172,0.0033 1.15053,-0.01335 1.79736,-0.037 z m -2.40826,-1.291956 c -0.24225,-0.05707 -0.50051,-0.196234 -0.85462,-0.460503 -1.540598,-1.149718 -1.933943,-2.653252 -1.076345,-4.11425 0.363065,-0.618515 1.155555,-1.305309 1.684915,-1.460188 1.08616,-0.317784 2.10246,0.166773 2.62609,1.252078 0.24177,0.501102 0.3262,0.816438 0.38739,1.446689 0.0766,0.789194 -0.0229,1.483652 -0.28345,1.978808 -0.24642,0.468222 -1.0445,1.075533 -1.71272,1.303314 -0.30963,0.105547 -0.49696,0.118676 -0.77126,0.05405 z"
       id="path1" /></g></svg>
